<?xml version="1.0" encoding="UTF-8" standalone="no"?>
<!-- Created with Inkscape (http://www.inkscape.org/) -->

<svg
   width="1500"
   height="400"
   viewBox="0 0 1500 400.00002"
   version="1.1"
   id="svg1"
   inkscape:version="1.3.2 (091e20e, 2023-11-25, custom)"
   sodipodi:docname="bg-mountains.svg"
   xmlns:inkscape="http://www.inkscape.org/namespaces/inkscape"
   xmlns:sodipodi="http://sodipodi.sourceforge.net/DTD/sodipodi-0.dtd"
   xmlns="http://www.w3.org/2000/svg"
   xmlns:svg="http://www.w3.org/2000/svg">
  <sodipodi:namedview
     id="namedview1"
     pagecolor="#ffffff"
     bordercolor="#666666"
     borderopacity="1.0"
     inkscape:showpageshadow="2"
     inkscape:pageopacity="0.0"
     inkscape:pagecheckerboard="0"
     inkscape:deskcolor="#d1d1d1"
     inkscape:document-units="px"
     inkscape:zoom="0.99402667"
     inkscape:cx="1092.023"
     inkscape:cy="265.58644"
     inkscape:window-width="1269"
     inkscape:window-height="1032"
     inkscape:window-x="512"
     inkscape:window-y="55"
     inkscape:window-maximized="0"
     inkscape:current-layer="layer1" />
  <defs
     id="defs1" />
  <g
     inkscape:label="Layer 1"
     inkscape:groupmode="layer"
     id="layer1">
    <path
       style="fill:#ccd9e3;fill-opacity:1;stroke:none;stroke-width:0.999998;stroke-linecap:round;stroke-linejoin:round;stroke-dasharray:none;paint-order:markers stroke fill"
       d="m 615.32093,330.00838 96.46682,-209.05649 132.64186,208.0657 z"
       id="path13" />
    <path
       style="fill:#ffffff;fill-opacity:1;stroke:none;stroke-width:0.999998;stroke-linecap:round;stroke-linejoin:round;stroke-dasharray:none;paint-order:markers stroke fill"
       d="m 711.78775,120.95189 -30.29836,65.6606 15.22542,-8.93792 4.52188,15.10953 8.54134,-14.86182 5.77795,13.37563 9.79742,-15.35722 15.57537,12.38486 -2.76338,-10.65098 15.79573,9.43162 z"
       id="path14" />
    <path
       style="fill:#bec6cc;fill-opacity:1;stroke:none;stroke-width:0.999998;stroke-linecap:round;stroke-linejoin:round;stroke-dasharray:none;paint-order:markers stroke fill"
       d="M 61.176611,337.89915 166.10426,156.23803 310.37979,337.0382 Z"
       id="path9" />
    <path
       style="fill:#ffffff;fill-opacity:1;stroke:none;stroke-width:0.999998;stroke-linecap:round;stroke-linejoin:round;stroke-dasharray:none;paint-order:markers stroke fill"
       d="m 166.10426,156.23803 -32.95574,57.05623 16.5608,-7.76666 4.91848,13.12954 9.29047,-12.9143 6.28473,11.62287 10.65671,-13.34478 16.94145,10.76192 -3.00574,-9.25525 17.18112,8.19568 z"
       id="path10" />
    <path
       style="fill:#bec6cc;fill-opacity:1;stroke:none;stroke-width:0.999998;stroke-linecap:round;stroke-linejoin:round;stroke-dasharray:none;paint-order:markers stroke fill"
       d="M 514.0756,331.02381 610.54241,207.19734 743.18428,330.43695 Z"
       id="path11" />
    <path
       style="fill:#ffffff;fill-opacity:1;stroke:none;stroke-width:0.999998;stroke-linecap:round;stroke-linejoin:round;stroke-dasharray:none;paint-order:markers stroke fill"
       d="m 610.54241,207.19734 -30.29836,38.89149 15.22542,-5.29402 4.52188,8.94954 8.54134,-8.80282 5.77796,7.92254 9.79741,-9.09626 15.57537,7.3357 -2.76337,-6.3087 15.79572,5.58645 z"
       id="path12" />
    <path
       style="fill:#ccd9e3;fill-opacity:1;stroke:none;stroke-width:0.999998;stroke-linecap:round;stroke-linejoin:round;stroke-dasharray:none;paint-order:markers stroke fill"
       d="m 1015.3209,330.00838 96.4668,-209.05649 79.5756,99.21563 92.2903,-20.12496 116.563,128.97503 z"
       id="path1"
       sodipodi:nodetypes="cccccc" />
    <path
       style="fill:#ffffff;fill-opacity:1;stroke:none;stroke-width:0.999998;stroke-linecap:round;stroke-linejoin:round;stroke-dasharray:none;paint-order:markers stroke fill"
       d="m 1111.7877,120.95189 -30.2983,65.6606 15.2254,-8.93792 4.5219,15.10953 8.5413,-14.86182 5.778,13.37563 9.7974,-15.35722 15.5754,12.38486 -2.7634,-10.65098 28.9558,11.56569 z"
       id="path2"
       sodipodi:nodetypes="ccccccccccc" />
    <path
       style="fill:#ffffff;fill-opacity:1;stroke:none;stroke-width:0.999998;stroke-linecap:round;stroke-linejoin:round;stroke-dasharray:none;paint-order:markers stroke fill"
       d="m 1283.4023,199.73456 -56.7963,12.84242 21.4498,6.35623 1.3208,7.46245 11.7424,-7.21474 9.8683,9.64101 8.1968,-7.35446 13.0857,8.11672 4.1723,-7.80556 18.2854,12.09921 z"
       id="path3"
       sodipodi:nodetypes="ccccccccccc" />
    <path
       style="fill:#bec6cc;fill-opacity:1;stroke:none;stroke-width:0.999998;stroke-linecap:round;stroke-linejoin:round;stroke-dasharray:none;paint-order:markers stroke fill"
       d="m 1200.1739,330.0178 29.5407,-91.63417 40.6184,91.19988 z"
       id="path4" />
    <path
       style="fill:#ffffff;fill-opacity:1;stroke:none;stroke-width:0.999998;stroke-linecap:round;stroke-linejoin:round;stroke-dasharray:none;paint-order:markers stroke fill"
       d="m 1229.7146,238.38363 -9.2782,28.78051 4.6624,-3.91769 1.3848,6.62285 2.6156,-6.51427 1.7693,5.86285 3.0002,-6.73143 4.7696,5.42857 -0.8462,-4.66857 4.8371,4.13409 z"
       id="path5" />
  </g>
</svg>
